<svg width="428" height="161" viewBox="0 0 428 161" fill="none" xmlns="http://www.w3.org/2000/svg">
<path d="M37.888 130.28C31.232 130.28 25.472 128.915 20.608 126.184C15.744 123.453 11.9467 119.571 9.216 114.536C6.57067 109.501 5.248 103.528 5.248 96.616C5.248 89.704 6.57067 83.7733 9.216 78.824C11.9467 73.7893 15.744 69.9067 20.608 67.176C25.472 64.4453 31.232 63.08 37.888 63.08C44.544 63.08 50.304 64.4453 55.168 67.176C60.1173 69.9067 63.9147 73.7893 66.56 78.824C69.2907 83.7733 70.656 89.704 70.656 96.616C70.656 103.528 69.2907 109.501 66.56 114.536C63.9147 119.571 60.1173 123.453 55.168 126.184C50.304 128.915 44.544 130.28 37.888 130.28ZM37.888 117.992C42.9227 117.992 46.9333 116.243 49.92 112.744C52.9067 109.16 54.4 103.784 54.4 96.616C54.4 89.448 52.9067 84.1147 49.92 80.616C46.9333 77.1173 42.9227 75.368 37.888 75.368C32.8533 75.368 28.8427 77.1173 25.856 80.616C22.8693 84.1147 21.376 89.448 21.376 96.616C21.376 103.784 22.8693 109.16 25.856 112.744C28.8427 116.243 32.8533 117.992 37.888 117.992ZM84.326 129V80.872C84.326 78.1413 84.2407 75.368 84.07 72.552C83.9847 69.736 83.7713 67.0053 83.43 64.36H98.918L100.71 82.024H98.15C99.0033 77.7573 100.411 74.216 102.374 71.4C104.422 68.584 106.897 66.4933 109.798 65.128C112.699 63.7627 115.857 63.08 119.27 63.08C120.806 63.08 122.043 63.1653 122.982 63.336C123.921 63.4213 124.859 63.6347 125.798 63.976L125.67 78.056C124.049 77.3733 122.641 76.9467 121.446 76.776C120.337 76.6053 118.929 76.52 117.222 76.52C113.553 76.52 110.438 77.288 107.878 78.824C105.403 80.36 103.526 82.4933 102.246 85.224C101.051 87.9547 100.454 91.0693 100.454 94.568V129H84.326ZM158.792 130.28C153.16 130.28 148.168 128.957 143.816 126.312C139.549 123.581 136.221 119.699 133.832 114.664C131.443 109.629 130.248 103.613 130.248 96.616C130.248 89.6187 131.443 83.6453 133.832 78.696C136.221 73.6613 139.549 69.8213 143.816 67.176C148.168 64.4453 153.16 63.08 158.792 63.08C164.168 63.08 168.904 64.4027 173 67.048C177.181 69.608 179.955 73.1067 181.32 77.544H179.656V34.792H195.656V129H179.912V115.304H181.448C180.083 119.912 177.309 123.581 173.128 126.312C169.032 128.957 164.253 130.28 158.792 130.28ZM163.272 117.992C168.307 117.992 172.36 116.243 175.432 112.744C178.504 109.16 180.04 103.784 180.04 96.616C180.04 89.448 178.504 84.1147 175.432 80.616C172.36 77.1173 168.307 75.368 163.272 75.368C158.237 75.368 154.141 77.1173 150.984 80.616C147.912 84.1147 146.376 89.448 146.376 96.616C146.376 103.784 147.912 109.16 150.984 112.744C154.141 116.243 158.237 117.992 163.272 117.992ZM244.311 130.28C233.474 130.28 224.983 127.293 218.839 121.32C212.695 115.347 209.623 107.155 209.623 96.744C209.623 90.0027 210.946 84.1147 213.591 79.08C216.236 74.0453 219.906 70.12 224.599 67.304C229.378 64.488 234.924 63.08 241.239 63.08C247.468 63.08 252.674 64.4027 256.855 67.048C261.036 69.6933 264.194 73.4053 266.327 78.184C268.546 82.9627 269.655 88.552 269.655 94.952V99.176H222.551V90.728H258.263L256.087 92.52C256.087 86.5467 254.807 81.9813 252.247 78.824C249.772 75.6667 246.146 74.088 241.367 74.088C236.076 74.088 231.98 75.9653 229.079 79.72C226.263 83.4747 224.855 88.7227 224.855 95.464V97.128C224.855 104.125 226.562 109.373 229.975 112.872C233.474 116.285 238.38 117.992 244.695 117.992C248.364 117.992 251.778 117.523 254.935 116.584C258.178 115.56 261.25 113.939 264.151 111.72L268.887 122.472C265.815 124.947 262.146 126.867 257.879 128.232C253.612 129.597 249.09 130.28 244.311 130.28ZM283.076 129V80.872C283.076 78.1413 282.991 75.368 282.82 72.552C282.735 69.736 282.521 67.0053 282.18 64.36H297.668L299.46 82.024H296.9C297.753 77.7573 299.161 74.216 301.124 71.4C303.172 68.584 305.647 66.4933 308.548 65.128C311.449 63.7627 314.607 63.08 318.02 63.08C319.556 63.08 320.793 63.1653 321.732 63.336C322.671 63.4213 323.609 63.6347 324.548 63.976L324.42 78.056C322.799 77.3733 321.391 76.9467 320.196 76.776C319.087 76.6053 317.679 76.52 315.972 76.52C312.303 76.52 309.188 77.288 306.628 78.824C304.153 80.36 302.276 82.4933 300.996 85.224C299.801 87.9547 299.204 91.0693 299.204 94.568V129H283.076ZM333.454 129V34.792H349.454V129H333.454ZM365.549 158.056L361.837 145.384C365.848 144.531 369.218 143.549 371.949 142.44C374.68 141.331 376.941 139.88 378.733 138.088C380.525 136.296 382.018 133.992 383.213 131.176L386.413 123.624L386.029 129.896L357.869 64.36H374.893L395.117 114.792H391.405L411.757 64.36H427.885L398.445 132.584C396.482 137.192 394.349 140.989 392.045 143.976C389.741 147.048 387.266 149.48 384.621 151.272C381.976 153.149 379.074 154.6 375.917 155.624C372.76 156.648 369.304 157.459 365.549 158.056Z" fill="white"/>
</svg>
