<svg width="800" height="300" viewBox="0 0 800 300" fill="none" xmlns="http://www.w3.org/2000/svg">
<rect width="800" height="300" fill="#0B0F0D"/>
<path d="M223.888 199.28C217.232 199.28 211.472 197.915 206.608 195.184C201.744 192.453 197.947 188.571 195.216 183.536C192.571 178.501 191.248 172.528 191.248 165.616C191.248 158.704 192.571 152.773 195.216 147.824C197.947 142.789 201.744 138.907 206.608 136.176C211.472 133.445 217.232 132.08 223.888 132.08C230.544 132.08 236.304 133.445 241.168 136.176C246.117 138.907 249.915 142.789 252.56 147.824C255.291 152.773 256.656 158.704 256.656 165.616C256.656 172.528 255.291 178.501 252.56 183.536C249.915 188.571 246.117 192.453 241.168 195.184C236.304 197.915 230.544 199.28 223.888 199.28ZM223.888 186.992C228.923 186.992 232.933 185.243 235.92 181.744C238.907 178.16 240.4 172.784 240.4 165.616C240.4 158.448 238.907 153.115 235.92 149.616C232.933 146.117 228.923 144.368 223.888 144.368C218.853 144.368 214.843 146.117 211.856 149.616C208.869 153.115 207.376 158.448 207.376 165.616C207.376 172.784 208.869 178.16 211.856 181.744C214.843 185.243 218.853 186.992 223.888 186.992ZM270.326 198V149.872C270.326 147.141 270.241 144.368 270.07 141.552C269.985 138.736 269.771 136.005 269.43 133.36H284.918L286.71 151.024H284.15C285.003 146.757 286.411 143.216 288.374 140.4C290.422 137.584 292.897 135.493 295.798 134.128C298.699 132.763 301.857 132.08 305.27 132.08C306.806 132.08 308.043 132.165 308.982 132.336C309.921 132.421 310.859 132.635 311.798 132.976L311.67 147.056C310.049 146.373 308.641 145.947 307.446 145.776C306.337 145.605 304.929 145.52 303.222 145.52C299.553 145.52 296.438 146.288 293.878 147.824C291.403 149.36 289.526 151.493 288.246 154.224C287.051 156.955 286.454 160.069 286.454 163.568V198H270.326ZM344.792 199.28C339.16 199.28 334.168 197.957 329.816 195.312C325.549 192.581 322.221 188.699 319.832 183.664C317.443 178.629 316.248 172.613 316.248 165.616C316.248 158.619 317.443 152.645 319.832 147.696C322.221 142.661 325.549 138.821 329.816 136.176C334.168 133.445 339.16 132.08 344.792 132.08C350.168 132.08 354.904 133.403 359 136.048C363.181 138.608 365.955 142.107 367.32 146.544H365.656V103.792H381.656V198H365.912V184.304H367.448C366.083 188.912 363.309 192.581 359.128 195.312C355.032 197.957 350.253 199.28 344.792 199.28ZM349.272 186.992C354.307 186.992 358.36 185.243 361.432 181.744C364.504 178.16 366.04 172.784 366.04 165.616C366.04 158.448 364.504 153.115 361.432 149.616C358.36 146.117 354.307 144.368 349.272 144.368C344.237 144.368 340.141 146.117 336.984 149.616C333.912 153.115 332.376 158.448 332.376 165.616C332.376 172.784 333.912 178.16 336.984 181.744C340.141 185.243 344.237 186.992 349.272 186.992ZM430.311 199.28C419.474 199.28 410.983 196.293 404.839 190.32C398.695 184.347 395.623 176.155 395.623 165.744C395.623 159.003 396.946 153.115 399.591 148.08C402.236 143.045 405.906 139.12 410.599 136.304C415.378 133.488 420.924 132.08 427.239 132.08C433.468 132.08 438.674 133.403 442.855 136.048C447.036 138.693 450.194 142.405 452.327 147.184C454.546 151.963 455.655 157.552 455.655 163.952V168.176H408.551V159.728H444.263L442.087 161.52C442.087 155.547 440.807 150.981 438.247 147.824C435.772 144.667 432.146 143.088 427.367 143.088C422.076 143.088 417.98 144.965 415.079 148.72C412.263 152.475 410.855 157.723 410.855 164.464V166.128C410.855 173.125 412.562 178.373 415.975 181.872C419.474 185.285 424.38 186.992 430.695 186.992C434.364 186.992 437.778 186.523 440.935 185.584C444.178 184.56 447.25 182.939 450.151 180.72L454.887 191.472C451.815 193.947 448.146 195.867 443.879 197.232C439.612 198.597 435.09 199.28 430.311 199.28ZM469.076 198V149.872C469.076 147.141 468.991 144.368 468.82 141.552C468.735 138.736 468.521 136.005 468.18 133.36H483.668L485.46 151.024H482.9C483.753 146.757 485.161 143.216 487.124 140.4C489.172 137.584 491.647 135.493 494.548 134.128C497.449 132.763 500.607 132.08 504.02 132.08C505.556 132.08 506.793 132.165 507.732 132.336C508.671 132.421 509.609 132.635 510.548 132.976L510.42 147.056C508.799 146.373 507.391 145.947 506.196 145.776C505.087 145.605 503.679 145.52 501.972 145.52C498.303 145.52 495.188 146.288 492.628 147.824C490.153 149.36 488.276 151.493 486.996 154.224C485.801 156.955 485.204 160.069 485.204 163.568V198H469.076ZM519.454 198V103.792H535.454V198H519.454ZM551.549 227.056L547.837 214.384C551.848 213.531 555.218 212.549 557.949 211.44C560.68 210.331 562.941 208.88 564.733 207.088C566.525 205.296 568.018 202.992 569.213 200.176L572.413 192.624L572.029 198.896L543.869 133.36H560.893L581.117 183.792H577.405L597.757 133.36H613.885L584.445 201.584C582.482 206.192 580.349 209.989 578.045 212.976C575.741 216.048 573.266 218.48 570.621 220.272C567.976 222.149 565.074 223.6 561.917 224.624C558.76 225.648 555.304 226.459 551.549 227.056Z" fill="white"/>
</svg>
